ffmpeg started on 2026-04-01 at 10:27:36
Report written to "D:\Convert\FFMetrics\reports\ssim_report-6.txt"
Log level: 32
Command line:
ffmpeg -hide_banner -nostdin -r 24000/1001 -i "F:\\Convert\\files\\[DC] Make Heroine ga Oosugiru - 07_Telegram_HEVC(251).mkv" -r 24000/1001 -i "F:\\Convert\\files\\[DC] Make Heroine ga Oosugiru - 07_Telegram.mp4" -lavfi "[0:v]settb=AVTB,setpts=PTS-STARTPTS,format=pix_fmts=yuv420p10le,fps=24000/1001,scale=1920:1080:flags=lanczos:param0=3:out_range=limited:out_color_matrix=bt709:out_chroma_loc=left,setsar=1/1,setdar=(1920/1080)*(1/1),colorspace=format=yuv420p10:range=tv:primaries=bt709:trc=bt709:space=bt709:fast=0[main];[1:v]settb=AVTB,setpts=PTS-STARTPTS,format=pix_fmts=yuv420p,fps=24000/1001,scale=1920:1080:flags=lanczos:param0=3:out_range=limited:out_color_matrix=bt709:out_chroma_loc=left,setsar=1/1,setdar=(1920/1080)*(1/1),colorspace=format=yuv420p:range=tv:primaries=bt709:trc=bt709:space=bt709:fast=0[ref];[main][ref]ssim=eof_action=endall:stats_file='D\\:/Convert/FFMetrics/logs/ssim_logfile-6.txt'" -f null -
Input #0, matroska,webm, from 'F:\Convert\files\[DC] Make Heroine ga Oosugiru - 07_Telegram_HEVC(251).mkv':
  Metadata:
    COMPATIBLE_BRANDS: isomiso2avc1mp41
    MAJOR_BRAND     : isom
    MINOR_VERSION   : 512
    ENCODER         : Lavf61.7.100
  Duration: 00:24:06.79, start: -0.021000, bitrate: 984 kb/s
  Stream #0:0: Video: hevc (Main 10), yuv420p10le(tv, bt709, progressive), 1920x1080 [SAR 1:1 DAR 16:9], 23.98 fps, 23.98 tbr, 1k tbn (default)
      Metadata:
        HANDLER_NAME    : VideoHandler
        VENDOR_ID       : [0][0][0][0]
        ENCODER         : Lavc61.19.100 libx265
        BPS             : 786929
        DURATION        : 00:24:06.569708333
        NUMBER_OF_FRAMES: 34683
        NUMBER_OF_BYTES : 142293404
        _STATISTICS_WRITING_APP: mkvpropedit v94.0 ('Initiate') 64-bit
        _STATISTICS_WRITING_DATE_UTC: 2026-03-30 08:32:58
        _STATISTICS_TAGS: BPS DURATION NUMBER_OF_FRAMES NUMBER_OF_BYTES
  Stream #0:1: Audio: aac (LC), 48000 Hz, stereo, fltp (default)
      Metadata:
        HANDLER_NAME    : SoundHandler
        VENDOR_ID       : [0][0][0][0]
        ENCODER         : Lavc61.19.100 aac
        BPS             : 193194
        DURATION        : 00:24:06.784000000
        NUMBER_OF_FRAMES: 67819
        NUMBER_OF_BYTES : 34938755
        _STATISTICS_WRITING_APP: mkvpropedit v94.0 ('Initiate') 64-bit
        _STATISTICS_WRITING_DATE_UTC: 2026-03-30 08:32:58
        _STATISTICS_TAGS: BPS DURATION NUMBER_OF_FRAMES NUMBER_OF_BYTES
Input #1, mov,mp4,m4a,3gp,3g2,mj2, from 'F:\Convert\files\[DC] Make Heroine ga Oosugiru - 07_Telegram.mp4':
  Metadata:
    major_brand     : isom
    minor_version   : 512
    compatible_brands: isomiso2avc1mp41
    encoder         : Lavf60.16.100
  Duration: 00:24:06.74, start: 0.000000, bitrate: 3764 kb/s
  Stream #1:0[0x1](und): Video: h264 (High) (avc1 / 0x31637661), yuv420p(tv, bt709, progressive), 1920x1080 [SAR 1:1 DAR 16:9], 3616 kb/s, 23.98 fps, 23.98 tbr, 24k tbn (default)
      Metadata:
        handler_name    : VideoHandler
        vendor_id       : [0][0][0][0]
        encoder         : Lavc60.31.102 h264_qsv
  Stream #1:1[0x2](und): Audio: aac (HE-AACv2) (mp4a / 0x6134706D), 48000 Hz, stereo, fltp, 144 kb/s (default)
      Metadata:
        handler_name    : SoundHandler
        vendor_id       : [0][0][0][0]
Stream mapping:
  Stream #0:0 (hevc) -> settb:default
  Stream #1:0 (h264) -> settb:default
  ssim:default -> Stream #0:0 (wrapped_avframe)
  Stream #0:1 -> #0:1 (aac (native) -> pcm_s16le (native))
Output #0, null, to 'pipe:':
  Metadata:
    COMPATIBLE_BRANDS: isomiso2avc1mp41
    MAJOR_BRAND     : isom
    MINOR_VERSION   : 512
    encoder         : Lavf61.7.100
  Stream #0:0: Video: wrapped_avframe, yuv420p10le(tv, bt709, progressive), 1920x1080 [SAR 1:1 DAR 16:9], q=2-31, 200 kb/s, 23.98 fps, 23.98 tbn
      Metadata:
        encoder         : Lavc61.19.100 wrapped_avframe
  Stream #0:1: Audio: pcm_s16le, 48000 Hz, stereo, s16, 1536 kb/s (default)
      Metadata:
        HANDLER_NAME    : SoundHandler
        VENDOR_ID       : [0][0][0][0]
        _STATISTICS_TAGS: BPS DURATION NUMBER_OF_FRAMES NUMBER_OF_BYTES
        BPS             : 193194
        DURATION        : 00:24:06.784000000
        NUMBER_OF_FRAMES: 67819
        NUMBER_OF_BYTES : 34938755
        _STATISTICS_WRITING_APP: mkvpropedit v94.0 ('Initiate') 64-bit
        _STATISTICS_WRITING_DATE_UTC: 2026-03-30 08:32:58
        encoder         : Lavc61.19.100 pcm_s16le
frame=  126 fps=0.0 q=-0.0 size=N/A time=00:00:05.25 bitrate=N/A speed=10.1x    frame=  316 fps=306 q=-0.0 size=N/A time=00:00:13.17 bitrate=N/A speed=12.8x    frame=  506 fps=328 q=-0.0 size=N/A time=00:00:21.10 bitrate=N/A speed=13.7x    frame=  675 fps=329 q=-0.0 size=N/A time=00:00:28.15 bitrate=N/A speed=13.7x    frame=  864 fps=335 q=-0.0 size=N/A time=00:00:36.03 bitrate=N/A speed=  14x    frame=  995 fps=322 q=-0.0 size=N/A time=00:00:41.49 bitrate=N/A speed=13.4x    frame= 1142 fps=317 q=-0.0 size=N/A time=00:00:47.63 bitrate=N/A speed=13.2x    frame= 1301 fps=315 q=-0.0 size=N/A time=00:00:54.26 bitrate=N/A speed=13.1x    frame= 1454 fps=314 q=-0.0 size=N/A time=00:01:00.64 bitrate=N/A speed=13.1x    frame= 1606 fps=311 q=-0.0 size=N/A time=00:01:06.98 bitrate=N/A speed=  13x    frame= 1745 fps=307 q=-0.0 size=N/A time=00:01:12.78 bitrate=N/A speed=12.8x    frame= 1890 fps=305 q=-0.0 size=N/A time=00:01:18.82 bitrate=N/A speed=12.7x    frame= 2043 fps=304 q=-0.0 size=N/A time=00:01:25.21 bitrate=N/A speed=12.7x    frame= 2157 fps=298 q=-0.0 size=N/A time=00:01:29.96 bitrate=N/A speed=12.4x    frame= 2308 fps=298 q=-0.0 size=N/A time=00:01:36.26 bitrate=N/A speed=12.4x    frame= 2451 fps=297 q=-0.0 size=N/A time=00:01:42.22 bitrate=N/A speed=12.4x    frame= 2583 fps=294 q=-0.0 size=N/A time=00:01:47.73 bitrate=N/A speed=12.3x    frame= 2763 fps=297 q=-0.0 size=N/A time=00:01:55.24 bitrate=N/A speed=12.4x    frame= 2935 fps=299 q=-0.0 size=N/A time=00:02:02.41 bitrate=N/A speed=12.5x    frame= 3121 fps=302 q=-0.0 size=N/A time=00:02:10.17 bitrate=N/A speed=12.6x    frame= 3322 fps=306 q=-0.0 size=N/A time=00:02:18.55 bitrate=N/A speed=12.8x    frame= 3515 fps=309 q=-0.0 size=N/A time=00:02:26.60 bitrate=N/A speed=12.9x    frame= 3707 fps=312 q=-0.0 size=N/A time=00:02:34.61 bitrate=N/A speed=  13x    frame= 3906 fps=315 q=-0.0 size=N/A time=00:02:42.91 bitrate=N/A speed=13.2x    frame= 4108 fps=318 q=-0.0 size=N/A time=00:02:51.33 bitrate=N/A speed=13.3x    frame= 4299 fps=320 q=-0.0 size=N/A time=00:02:59.30 bitrate=N/A speed=13.4x    frame= 4494 fps=322 q=-0.0 size=N/A time=00:03:07.43 bitrate=N/A speed=13.5x    frame= 4688 fps=324 q=-0.0 size=N/A time=00:03:15.52 bitrate=N/A speed=13.5x    frame= 4872 fps=326 q=-0.0 size=N/A time=00:03:23.20 bitrate=N/A speed=13.6x    frame= 5064 fps=327 q=-0.0 size=N/A time=00:03:31.21 bitrate=N/A speed=13.6x    frame= 5243 fps=328 q=-0.0 size=N/A time=00:03:38.67 bitrate=N/A speed=13.7x    frame= 5432 fps=329 q=-0.0 size=N/A time=00:03:46.55 bitrate=N/A speed=13.7x    frame= 5620 fps=330 q=-0.0 size=N/A time=00:03:54.40 bitrate=N/A speed=13.8x    frame= 5818 fps=332 q=-0.0 size=N/A time=00:04:02.65 bitrate=N/A speed=13.8x    frame= 6019 fps=333 q=-0.0 size=N/A time=00:04:11.04 bitrate=N/A speed=13.9x    frame= 6214 fps=335 q=-0.0 size=N/A time=00:04:19.17 bitrate=N/A speed=  14x    frame= 6401 fps=335 q=-0.0 size=N/A time=00:04:26.97 bitrate=N/A speed=  14x    frame= 6587 fps=336 q=-0.0 size=N/A time=00:04:34.73 bitrate=N/A speed=  14x    frame= 6762 fps=336 q=-0.0 size=N/A time=00:04:42.03 bitrate=N/A speed=  14x    frame= 6961 fps=337 q=-0.0 size=N/A time=00:04:50.33 bitrate=N/A speed=14.1x    frame= 7150 fps=338 q=-0.0 size=N/A time=00:04:58.21 bitrate=N/A speed=14.1x    frame= 7339 fps=338 q=-0.0 size=N/A time=00:05:06.09 bitrate=N/A speed=14.1x    frame= 7527 fps=339 q=-0.0 size=N/A time=00:05:13.93 bitrate=N/A speed=14.1x    frame= 7707 fps=339 q=-0.0 size=N/A time=00:05:21.44 bitrate=N/A speed=14.2x    frame= 7897 fps=340 q=-0.0 size=N/A time=00:05:29.37 bitrate=N/A speed=14.2x    frame= 8076 fps=340 q=-0.0 size=N/A time=00:05:36.83 bitrate=N/A speed=14.2x    frame= 8263 fps=341 q=-0.0 size=N/A time=00:05:44.63 bitrate=N/A speed=14.2x    frame= 8444 fps=341 q=-0.0 size=N/A time=00:05:52.18 bitrate=N/A speed=14.2x    frame= 8643 fps=342 q=-0.0 size=N/A time=00:06:00.48 bitrate=N/A speed=14.2x    frame= 8828 fps=342 q=-0.0 size=N/A time=00:06:08.20 bitrate=N/A speed=14.3x    frame= 9020 fps=343 q=-0.0 size=N/A time=00:06:16.20 bitrate=N/A speed=14.3x    frame= 9224 fps=344 q=-0.0 size=N/A time=00:06:24.71 bitrate=N/A speed=14.3x    frame= 9419 fps=344 q=-0.0 size=N/A time=00:06:32.85 bitrate=N/A speed=14.3x    frame= 9617 fps=345 q=-0.0 size=N/A time=00:06:41.10 bitrate=N/A speed=14.4x    frame= 9805 fps=345 q=-0.0 size=N/A time=00:06:48.95 bitrate=N/A speed=14.4x    frame=10000 fps=346 q=-0.0 size=N/A time=00:06:57.08 bitrate=N/A speed=14.4x    frame=10181 fps=346 q=-0.0 size=N/A time=00:07:04.63 bitrate=N/A speed=14.4x    frame=10369 fps=346 q=-0.0 size=N/A time=00:07:12.47 bitrate=N/A speed=14.4x    frame=10553 fps=346 q=-0.0 size=N/A time=00:07:20.14 bitrate=N/A speed=14.4x    frame=10743 fps=347 q=-0.0 size=N/A time=00:07:28.07 bitrate=N/A speed=14.5x    frame=10934 fps=347 q=-0.0 size=N/A time=00:07:36.03 bitrate=N/A speed=14.5x    frame=11119 fps=347 q=-0.0 size=N/A time=00:07:43.75 bitrate=N/A speed=14.5x    frame=11301 fps=347 q=-0.0 size=N/A time=00:07:51.34 bitrate=N/A speed=14.5x    frame=11492 fps=348 q=-0.0 size=N/A time=00:07:59.31 bitrate=N/A speed=14.5x    frame=11672 fps=348 q=-0.0 size=N/A time=00:08:06.81 bitrate=N/A speed=14.5x    frame=11852 fps=348 q=-0.0 size=N/A time=00:08:14.32 bitrate=N/A speed=14.5x    frame=12049 fps=348 q=-0.0 size=N/A time=00:08:22.54 bitrate=N/A speed=14.5x    frame=12236 fps=349 q=-0.0 size=N/A time=00:08:30.34 bitrate=N/A speed=14.5x    frame=12421 fps=349 q=-0.0 size=N/A time=00:08:38.05 bitrate=N/A speed=14.5x    frame=12610 fps=349 q=-0.0 size=N/A time=00:08:45.94 bitrate=N/A speed=14.6x    frame=12790 fps=349 q=-0.0 size=N/A time=00:08:53.44 bitrate=N/A speed=14.6x    frame=12961 fps=349 q=-0.0 size=N/A time=00:09:00.58 bitrate=N/A speed=14.5x    frame=13143 fps=349 q=-0.0 size=N/A time=00:09:08.17 bitrate=N/A speed=14.5x    frame=13313 fps=349 q=-0.0 size=N/A time=00:09:15.26 bitrate=N/A speed=14.5x    frame=13493 fps=349 q=-0.0 size=N/A time=00:09:22.77 bitrate=N/A speed=14.5x    frame=13678 fps=349 q=-0.0 size=N/A time=00:09:30.48 bitrate=N/A speed=14.5x    frame=13861 fps=349 q=-0.0 size=N/A time=00:09:38.11 bitrate=N/A speed=14.5x    frame=14040 fps=349 q=-0.0 size=N/A time=00:09:45.58 bitrate=N/A speed=14.5x    frame=14218 fps=349 q=-0.0 size=N/A time=00:09:53.00 bitrate=N/A speed=14.5x    frame=14412 fps=349 q=-0.0 size=N/A time=00:10:01.10 bitrate=N/A speed=14.6x    frame=14596 fps=349 q=-0.0 size=N/A time=00:10:08.77 bitrate=N/A speed=14.6x    frame=14789 fps=349 q=-0.0 size=N/A time=00:10:16.82 bitrate=N/A speed=14.6x    frame=14977 fps=350 q=-0.0 size=N/A time=00:10:24.66 bitrate=N/A speed=14.6x    frame=15141 fps=349 q=-0.0 size=N/A time=00:10:31.50 bitrate=N/A speed=14.6x    frame=15312 fps=349 q=-0.0 size=N/A time=00:10:38.63 bitrate=N/A speed=14.6x    frame=15493 fps=349 q=-0.0 size=N/A time=00:10:46.18 bitrate=N/A speed=14.6x    frame=15680 fps=349 q=-0.0 size=N/A time=00:10:53.98 bitrate=N/A speed=14.6x    frame=15870 fps=349 q=-0.0 size=N/A time=00:11:01.91 bitrate=N/A speed=14.6x    frame=16063 fps=350 q=-0.0 size=N/A time=00:11:09.96 bitrate=N/A speed=14.6x    frame=16253 fps=350 q=-0.0 size=N/A time=00:11:17.88 bitrate=N/A speed=14.6x    frame=16445 fps=350 q=-0.0 size=N/A time=00:11:25.89 bitrate=N/A speed=14.6x    frame=16629 fps=350 q=-0.0 size=N/A time=00:11:33.56 bitrate=N/A speed=14.6x    frame=16820 fps=350 q=-0.0 size=N/A time=00:11:41.53 bitrate=N/A speed=14.6x    frame=17015 fps=351 q=-0.0 size=N/A time=00:11:49.66 bitrate=N/A speed=14.6x    frame=17207 fps=351 q=-0.0 size=N/A time=00:11:57.67 bitrate=N/A speed=14.6x    frame=17394 fps=351 q=-0.0 size=N/A time=00:12:05.47 bitrate=N/A speed=14.6x    frame=17579 fps=351 q=-0.0 size=N/A time=00:12:13.19 bitrate=N/A speed=14.6x    frame=17769 fps=351 q=-0.0 size=N/A time=00:12:21.11 bitrate=N/A speed=14.7x    frame=17957 fps=351 q=-0.0 size=N/A time=00:12:28.95 bitrate=N/A speed=14.7x    frame=18142 fps=352 q=-0.0 size=N/A time=00:12:36.67 bitrate=N/A speed=14.7x    frame=18322 fps=351 q=-0.0 size=N/A time=00:12:44.18 bitrate=N/A speed=14.7x    frame=18510 fps=352 q=-0.0 size=N/A time=00:12:52.02 bitrate=N/A speed=14.7x    frame=18701 fps=352 q=-0.0 size=N/A time=00:12:59.98 bitrate=N/A speed=14.7x    frame=18888 fps=352 q=-0.0 size=N/A time=00:13:07.78 bitrate=N/A speed=14.7x    frame=19080 fps=352 q=-0.0 size=N/A time=00:13:15.79 bitrate=N/A speed=14.7x    frame=19270 fps=352 q=-0.0 size=N/A time=00:13:23.71 bitrate=N/A speed=14.7x    frame=19467 fps=353 q=-0.0 size=N/A time=00:13:31.93 bitrate=N/A speed=14.7x    frame=19652 fps=353 q=-0.0 size=N/A time=00:13:39.65 bitrate=N/A speed=14.7x    frame=19845 fps=353 q=-0.0 size=N/A time=00:13:47.70 bitrate=N/A speed=14.7x    frame=20039 fps=353 q=-0.0 size=N/A time=00:13:55.79 bitrate=N/A speed=14.7x    frame=20238 fps=353 q=-0.0 size=N/A time=00:14:04.09 bitrate=N/A speed=14.7x    frame=20422 fps=353 q=-0.0 size=N/A time=00:14:11.76 bitrate=N/A speed=14.7x    frame=20600 fps=353 q=-0.0 size=N/A time=00:14:19.19 bitrate=N/A speed=14.7x    frame=20790 fps=353 q=-0.0 size=N/A time=00:14:27.11 bitrate=N/A speed=14.7x    frame=20981 fps=354 q=-0.0 size=N/A time=00:14:35.08 bitrate=N/A speed=14.7x    frame=21176 fps=354 q=-0.0 size=N/A time=00:14:43.21 bitrate=N/A speed=14.8x    frame=21358 fps=354 q=-0.0 size=N/A time=00:14:50.80 bitrate=N/A speed=14.8x    frame=21550 fps=354 q=-0.0 size=N/A time=00:14:58.81 bitrate=N/A speed=14.8x    frame=21729 fps=354 q=-0.0 size=N/A time=00:15:06.28 bitrate=N/A speed=14.8x    frame=21903 fps=354 q=-0.0 size=N/A time=00:15:13.53 bitrate=N/A speed=14.8x    frame=22089 fps=354 q=-0.0 size=N/A time=00:15:21.29 bitrate=N/A speed=14.8x    frame=22276 fps=354 q=-0.0 size=N/A time=00:15:29.09 bitrate=N/A speed=14.8x    frame=22463 fps=354 q=-0.0 size=N/A time=00:15:36.89 bitrate=N/A speed=14.8x    frame=22643 fps=354 q=-0.0 size=N/A time=00:15:44.40 bitrate=N/A speed=14.8x    frame=22825 fps=354 q=-0.0 size=N/A time=00:15:51.99 bitrate=N/A speed=14.8x    frame=23016 fps=354 q=-0.0 size=N/A time=00:15:59.95 bitrate=N/A speed=14.8x    frame=23198 fps=354 q=-0.0 size=N/A time=00:16:07.54 bitrate=N/A speed=14.8x    frame=23386 fps=354 q=-0.0 size=N/A time=00:16:15.39 bitrate=N/A speed=14.8x    frame=23579 fps=354 q=-0.0 size=N/A time=00:16:23.44 bitrate=N/A speed=14.8x    frame=23770 fps=354 q=-0.0 size=N/A time=00:16:31.40 bitrate=N/A speed=14.8x    frame=23963 fps=354 q=-0.0 size=N/A time=00:16:39.45 bitrate=N/A speed=14.8x    frame=24155 fps=355 q=-0.0 size=N/A time=00:16:47.46 bitrate=N/A speed=14.8x    frame=24339 fps=355 q=-0.0 size=N/A time=00:16:55.13 bitrate=N/A speed=14.8x    frame=24530 fps=355 q=-0.0 size=N/A time=00:17:03.10 bitrate=N/A speed=14.8x    frame=24725 fps=355 q=-0.0 size=N/A time=00:17:11.23 bitrate=N/A speed=14.8x    frame=24913 fps=355 q=-0.0 size=N/A time=00:17:19.07 bitrate=N/A speed=14.8x    frame=25106 fps=355 q=-0.0 size=N/A time=00:17:27.12 bitrate=N/A speed=14.8x    frame=25299 fps=355 q=-0.0 size=N/A time=00:17:35.17 bitrate=N/A speed=14.8x    frame=25490 fps=355 q=-0.0 size=N/A time=00:17:43.14 bitrate=N/A speed=14.8x    frame=25684 fps=355 q=-0.0 size=N/A time=00:17:51.23 bitrate=N/A speed=14.8x    frame=25874 fps=356 q=-0.0 size=N/A time=00:17:59.16 bitrate=N/A speed=14.8x    frame=26073 fps=356 q=-0.0 size=N/A time=00:18:07.46 bitrate=N/A speed=14.8x    frame=26257 fps=356 q=-0.0 size=N/A time=00:18:15.13 bitrate=N/A speed=14.8x    frame=26443 fps=356 q=-0.0 size=N/A time=00:18:22.89 bitrate=N/A speed=14.8x    frame=26631 fps=356 q=-0.0 size=N/A time=00:18:30.73 bitrate=N/A speed=14.8x    frame=26828 fps=356 q=-0.0 size=N/A time=00:18:38.95 bitrate=N/A speed=14.9x    frame=27004 fps=356 q=-0.0 size=N/A time=00:18:46.29 bitrate=N/A speed=14.8x    frame=27174 fps=356 q=-0.0 size=N/A time=00:18:53.38 bitrate=N/A speed=14.8x    frame=27355 fps=356 q=-0.0 size=N/A time=00:19:00.93 bitrate=N/A speed=14.8x    frame=27524 fps=356 q=-0.0 size=N/A time=00:19:07.98 bitrate=N/A speed=14.8x    frame=27704 fps=356 q=-0.0 size=N/A time=00:19:15.48 bitrate=N/A speed=14.8x    frame=27884 fps=356 q=-0.0 size=N/A time=00:19:22.99 bitrate=N/A speed=14.8x    frame=28076 fps=356 q=-0.0 size=N/A time=00:19:31.00 bitrate=N/A speed=14.8x    frame=28265 fps=356 q=-0.0 size=N/A time=00:19:38.88 bitrate=N/A speed=14.8x    frame=28444 fps=356 q=-0.0 size=N/A time=00:19:46.35 bitrate=N/A speed=14.8x    frame=28636 fps=356 q=-0.0 size=N/A time=00:19:54.35 bitrate=N/A speed=14.8x    frame=28812 fps=356 q=-0.0 size=N/A time=00:20:01.70 bitrate=N/A speed=14.8x    frame=28978 fps=355 q=-0.0 size=N/A time=00:20:08.62 bitrate=N/A speed=14.8x    frame=29158 fps=355 q=-0.0 size=N/A time=00:20:16.13 bitrate=N/A speed=14.8x    frame=29336 fps=355 q=-0.0 size=N/A time=00:20:23.55 bitrate=N/A speed=14.8x    frame=29500 fps=355 q=-0.0 size=N/A time=00:20:30.39 bitrate=N/A speed=14.8x    frame=29682 fps=355 q=-0.0 size=N/A time=00:20:37.98 bitrate=N/A speed=14.8x    frame=29848 fps=355 q=-0.0 size=N/A time=00:20:44.91 bitrate=N/A speed=14.8x    frame=30006 fps=354 q=-0.0 size=N/A time=00:20:51.50 bitrate=N/A speed=14.8x    frame=30185 fps=354 q=-0.0 size=N/A time=00:20:58.96 bitrate=N/A speed=14.8x    frame=30360 fps=354 q=-0.0 size=N/A time=00:21:06.26 bitrate=N/A speed=14.8x    frame=30553 fps=355 q=-0.0 size=N/A time=00:21:14.31 bitrate=N/A speed=14.8x    frame=30740 fps=355 q=-0.0 size=N/A time=00:21:22.11 bitrate=N/A speed=14.8x    frame=30926 fps=355 q=-0.0 size=N/A time=00:21:29.87 bitrate=N/A speed=14.8x    frame=31109 fps=355 q=-0.0 size=N/A time=00:21:37.50 bitrate=N/A speed=14.8x    frame=31295 fps=355 q=-0.0 size=N/A time=00:21:45.26 bitrate=N/A speed=14.8x    frame=31480 fps=355 q=-0.0 size=N/A time=00:21:52.97 bitrate=N/A speed=14.8x    frame=31664 fps=355 q=-0.0 size=N/A time=00:22:00.65 bitrate=N/A speed=14.8x    frame=31833 fps=355 q=-0.0 size=N/A time=00:22:07.70 bitrate=N/A speed=14.8x    frame=32016 fps=354 q=-0.0 size=N/A time=00:22:15.33 bitrate=N/A speed=14.8x    frame=32198 fps=354 q=-0.0 size=N/A time=00:22:22.92 bitrate=N/A speed=14.8x    frame=32385 fps=355 q=-0.0 size=N/A time=00:22:30.72 bitrate=N/A speed=14.8x    frame=32578 fps=355 q=-0.0 size=N/A time=00:22:38.77 bitrate=N/A speed=14.8x    frame=32728 fps=354 q=-0.0 size=N/A time=00:22:45.03 bitrate=N/A speed=14.8x    frame=32881 fps=354 q=-0.0 size=N/A time=00:22:51.41 bitrate=N/A speed=14.8x    frame=33069 fps=354 q=-0.0 size=N/A time=00:22:59.25 bitrate=N/A speed=14.8x    frame=33242 fps=354 q=-0.0 size=N/A time=00:23:06.46 bitrate=N/A speed=14.8x    frame=33416 fps=354 q=-0.0 size=N/A time=00:23:13.72 bitrate=N/A speed=14.8x    frame=33563 fps=354 q=-0.0 size=N/A time=00:23:19.85 bitrate=N/A speed=14.7x    frame=33717 fps=353 q=-0.0 size=N/A time=00:23:26.27 bitrate=N/A speed=14.7x    frame=33835 fps=353 q=-0.0 size=N/A time=00:23:31.20 bitrate=N/A speed=14.7x    frame=33976 fps=352 q=-0.0 size=N/A time=00:23:37.08 bitrate=N/A speed=14.7x    frame=34139 fps=352 q=-0.0 size=N/A time=00:23:43.88 bitrate=N/A speed=14.7x    frame=34290 fps=352 q=-0.0 size=N/A time=00:23:50.17 bitrate=N/A speed=14.7x    frame=34421 fps=351 q=-0.0 size=N/A time=00:23:55.64 bitrate=N/A speed=14.6x    frame=34583 fps=351 q=-0.0 size=N/A time=00:24:02.39 bitrate=N/A speed=14.6x    [Parsed_ssim_16 @ 00000193de3baec0] SSIM Y:0.994175 (22.346925) U:0.993981 (22.204397) V:0.993584 (21.927147) All:0.994044 (22.250401)
[out#0/null @ 00000193d6ffdec0] video:14903KiB audio:271276KiB subtitle:0KiB other streams:0KiB global headers:0KiB muxing overhead: unknown
frame=34683 fps=351 q=-0.0 Lsize=N/A time=00:24:06.57 bitrate=N/A speed=14.6x    
